<svg width="22" height="22" viewBox="0 0 22 22" fill="none" xmlns="http://www.w3.org/2000/svg">
<path d="M11 2.6875C8.79539 2.6875 6.68107 3.56328 5.12217 5.12217C3.56328 6.68107 2.6875 8.79539 2.6875 11C2.6875 13.2046 3.56328 15.3189 5.12217 16.8778C6.68107 18.4367 8.79539 19.3125 11 19.3125C13.2046 19.3125 15.3189 18.4367 16.8778 16.8778C18.4367 15.3189 19.3125 13.2046 19.3125 11C19.3125 8.79539 18.4367 6.68107 16.8778 5.12217C15.3189 3.56328 13.2046 2.6875 11 2.6875Z" fill="#039BE5" style="fill:#039BE5;fill:color(display-p3 0.0118 0.6078 0.8980);fill-opacity:1;"/>
<path d="M12.1252 13.2032H14.2764L14.6142 11.0179H12.1248V9.82356C12.1248 8.91575 12.4214 8.11075 13.2706 8.11075H14.6352V6.20368C14.3954 6.17131 13.8884 6.10043 12.9302 6.10043C10.9296 6.10043 9.75662 7.157 9.75662 9.56412V11.0179H7.69994V13.2032H9.75662V19.2097C10.1639 19.2709 10.5765 19.3125 11 19.3125C11.3828 19.3125 11.7564 19.2775 12.1252 19.2276V13.2032Z" fill="white" style="fill:white;fill-opacity:1;"/>
</svg>
