<svg width="21" height="22" viewBox="0 0 21 22" fill="none" xmlns="http://www.w3.org/2000/svg">
<path d="M19.0798 9.28631H18.375V9.25H10.5V12.75H15.4451C14.7236 14.7874 12.7851 16.25 10.5 16.25C7.60069 16.25 5.25 13.8993 5.25 11C5.25 8.10069 7.60069 5.75 10.5 5.75C11.8383 5.75 13.0559 6.25487 13.9829 7.07956L16.4579 4.60462C14.8951 3.14819 12.8048 2.25 10.5 2.25C5.66781 2.25 1.75 6.16781 1.75 11C1.75 15.8322 5.66781 19.75 10.5 19.75C15.3322 19.75 19.25 15.8322 19.25 11C19.25 10.4133 19.1896 9.84063 19.0798 9.28631Z" fill="#FFC107" style="fill:#FFC107;fill:color(display-p3 1.0000 0.7569 0.0275);fill-opacity:1;"/>
<path d="M2.75887 6.92731L5.63369 9.03562C6.41156 7.10975 8.29544 5.75 10.5 5.75C11.8383 5.75 13.0559 6.25487 13.9829 7.07956L16.4579 4.60462C14.8951 3.14819 12.8047 2.25 10.5 2.25C7.13912 2.25 4.2245 4.14744 2.75887 6.92731Z" fill="#FF3D00" style="fill:#FF3D00;fill:color(display-p3 1.0000 0.2392 0.0000);fill-opacity:1;"/>
<path d="M10.5 19.75C12.7601 19.75 14.8137 18.8851 16.3664 17.4785L13.6583 15.1869C12.7798 15.8523 11.6878 16.25 10.5 16.25C8.22412 16.25 6.29169 14.7988 5.56369 12.7736L2.71031 14.9721C4.15844 17.8057 7.09931 19.75 10.5 19.75Z" fill="#4CAF50" style="fill:#4CAF50;fill:color(display-p3 0.2980 0.6863 0.3137);fill-opacity:1;"/>
<path d="M19.0798 9.28631H18.375V9.25H10.5V12.75H15.4451C15.0986 13.7287 14.469 14.5726 13.657 15.1873L13.6583 15.1864L16.3664 17.4781C16.1748 17.6522 19.25 15.375 19.25 11C19.25 10.4133 19.1896 9.84063 19.0798 9.28631Z" fill="#1976D2" style="fill:#1976D2;fill:color(display-p3 0.0980 0.4627 0.8235);fill-opacity:1;"/>
</svg>
